<mxfile host="app.diagrams.net" modified="2024-01-25T11:49:35.137Z" agent="Mozilla/5.0 (X11; Linux x86_64; rv:121.0) Gecko/20100101 Firefox/121.0" etag="iyAyEM5OXgluxKSCQ4py" version="23.0.0" type="github">
  <diagram name="Page-1" id="g99sftOlf4TvGVZS73dV">
    <mxGraphModel dx="2301" dy="2071" grid="1" gridSize="10" guides="1" tooltips="1" connect="1" arrows="1" fold="1" page="1" pageScale="1" pageWidth="850" pageHeight="1100" math="0" shadow="0">
      <root>
        <mxCell id="0" />
        <mxCell id="1" parent="0" />
        <mxCell id="FiWc85nkrxmUE4J1HQtK-2" value="" style="rounded=0;whiteSpace=wrap;html=1;" parent="1" vertex="1">
          <mxGeometry x="150" y="100" width="730" height="480" as="geometry" />
        </mxCell>
        <mxCell id="FiWc85nkrxmUE4J1HQtK-3" value="Inkwell Notes" style="rounded=0;whiteSpace=wrap;html=1;" parent="1" vertex="1">
          <mxGeometry x="150" y="100" width="730" height="20" as="geometry" />
        </mxCell>
        <mxCell id="FiWc85nkrxmUE4J1HQtK-4" value="" style="rounded=0;whiteSpace=wrap;html=1;" parent="1" vertex="1">
          <mxGeometry x="860" y="105" width="10" height="10" as="geometry" />
        </mxCell>
        <mxCell id="FiWc85nkrxmUE4J1HQtK-5" value="" style="rounded=0;whiteSpace=wrap;html=1;" parent="1" vertex="1">
          <mxGeometry x="840" y="105" width="10" height="10" as="geometry" />
        </mxCell>
        <mxCell id="FiWc85nkrxmUE4J1HQtK-6" value="" style="rounded=0;whiteSpace=wrap;html=1;" parent="1" vertex="1">
          <mxGeometry x="820" y="105" width="10" height="10" as="geometry" />
        </mxCell>
        <mxCell id="FiWc85nkrxmUE4J1HQtK-7" value="" style="rounded=0;whiteSpace=wrap;html=1;" parent="1" vertex="1">
          <mxGeometry x="150" y="120" width="170" height="460" as="geometry" />
        </mxCell>
        <mxCell id="FiWc85nkrxmUE4J1HQtK-36" value="&lt;b&gt;&lt;font style=&quot;font-size: 19px;&quot;&gt;+&lt;/font&gt;&lt;/b&gt;" style="text;html=1;strokeColor=none;fillColor=none;align=center;verticalAlign=middle;whiteSpace=wrap;rounded=0;" parent="1" vertex="1">
          <mxGeometry x="155" y="100" width="15" height="20" as="geometry" />
        </mxCell>
        <mxCell id="_jMFxOHOce672pOM5BbB-6" value="&lt;font style=&quot;font-size: 11px;&quot;&gt;Search&lt;/font&gt;" style="rounded=0;whiteSpace=wrap;html=1;" parent="1" vertex="1">
          <mxGeometry x="150" y="120" width="170" height="20" as="geometry" />
        </mxCell>
        <mxCell id="_jMFxOHOce672pOM5BbB-7" value="" style="group" parent="1" vertex="1" connectable="0">
          <mxGeometry x="160" y="150" width="150" height="190" as="geometry" />
        </mxCell>
        <mxCell id="FiWc85nkrxmUE4J1HQtK-8" value="" style="rounded=1;whiteSpace=wrap;html=1;" parent="_jMFxOHOce672pOM5BbB-7" vertex="1">
          <mxGeometry width="150" height="30" as="geometry" />
        </mxCell>
        <mxCell id="FiWc85nkrxmUE4J1HQtK-9" value="" style="ellipse;whiteSpace=wrap;html=1;aspect=fixed;labelBackgroundColor=none;gradientColor=none;shadow=0;fillColor=#FFFFFF;" parent="_jMFxOHOce672pOM5BbB-7" vertex="1">
          <mxGeometry x="10" y="10" width="10" height="10" as="geometry" />
        </mxCell>
        <mxCell id="FiWc85nkrxmUE4J1HQtK-10" value="New Note" style="text;html=1;strokeColor=none;fillColor=none;align=center;verticalAlign=middle;whiteSpace=wrap;rounded=0;" parent="_jMFxOHOce672pOM5BbB-7" vertex="1">
          <mxGeometry x="30" width="60" height="30" as="geometry" />
        </mxCell>
        <mxCell id="FiWc85nkrxmUE4J1HQtK-12" value="" style="rounded=1;whiteSpace=wrap;html=1;" parent="_jMFxOHOce672pOM5BbB-7" vertex="1">
          <mxGeometry y="40" width="150" height="30" as="geometry" />
        </mxCell>
        <mxCell id="FiWc85nkrxmUE4J1HQtK-13" value="" style="ellipse;whiteSpace=wrap;html=1;aspect=fixed;fillColor=#CCCCCC;" parent="_jMFxOHOce672pOM5BbB-7" vertex="1">
          <mxGeometry x="10" y="50" width="10" height="10" as="geometry" />
        </mxCell>
        <mxCell id="FiWc85nkrxmUE4J1HQtK-14" value="New Note" style="text;html=1;strokeColor=none;fillColor=none;align=center;verticalAlign=middle;whiteSpace=wrap;rounded=0;" parent="_jMFxOHOce672pOM5BbB-7" vertex="1">
          <mxGeometry x="30" y="40" width="60" height="30" as="geometry" />
        </mxCell>
        <mxCell id="FiWc85nkrxmUE4J1HQtK-15" value="" style="rounded=1;whiteSpace=wrap;html=1;" parent="_jMFxOHOce672pOM5BbB-7" vertex="1">
          <mxGeometry y="80" width="150" height="30" as="geometry" />
        </mxCell>
        <mxCell id="FiWc85nkrxmUE4J1HQtK-16" value="" style="ellipse;whiteSpace=wrap;html=1;aspect=fixed;fillColor=#999999;" parent="_jMFxOHOce672pOM5BbB-7" vertex="1">
          <mxGeometry x="10" y="90" width="10" height="10" as="geometry" />
        </mxCell>
        <mxCell id="FiWc85nkrxmUE4J1HQtK-17" value="New Note" style="text;html=1;strokeColor=none;fillColor=none;align=center;verticalAlign=middle;whiteSpace=wrap;rounded=0;" parent="_jMFxOHOce672pOM5BbB-7" vertex="1">
          <mxGeometry x="30" y="80" width="60" height="30" as="geometry" />
        </mxCell>
        <mxCell id="FiWc85nkrxmUE4J1HQtK-18" value="" style="rounded=1;whiteSpace=wrap;html=1;" parent="_jMFxOHOce672pOM5BbB-7" vertex="1">
          <mxGeometry y="120" width="150" height="30" as="geometry" />
        </mxCell>
        <mxCell id="FiWc85nkrxmUE4J1HQtK-19" value="" style="ellipse;whiteSpace=wrap;html=1;aspect=fixed;fillColor=#666666;" parent="_jMFxOHOce672pOM5BbB-7" vertex="1">
          <mxGeometry x="10" y="130" width="10" height="10" as="geometry" />
        </mxCell>
        <mxCell id="FiWc85nkrxmUE4J1HQtK-20" value="New Note" style="text;html=1;strokeColor=none;fillColor=none;align=center;verticalAlign=middle;whiteSpace=wrap;rounded=0;" parent="_jMFxOHOce672pOM5BbB-7" vertex="1">
          <mxGeometry x="30" y="120" width="60" height="30" as="geometry" />
        </mxCell>
        <mxCell id="FiWc85nkrxmUE4J1HQtK-21" value="" style="rounded=1;whiteSpace=wrap;html=1;" parent="_jMFxOHOce672pOM5BbB-7" vertex="1">
          <mxGeometry y="160" width="150" height="30" as="geometry" />
        </mxCell>
        <mxCell id="FiWc85nkrxmUE4J1HQtK-22" value="" style="ellipse;whiteSpace=wrap;html=1;aspect=fixed;strokeColor=#4D4D4D;fillColor=#333333;" parent="_jMFxOHOce672pOM5BbB-7" vertex="1">
          <mxGeometry x="10" y="170" width="10" height="10" as="geometry" />
        </mxCell>
        <mxCell id="FiWc85nkrxmUE4J1HQtK-23" value="New Note" style="text;html=1;strokeColor=none;fillColor=none;align=center;verticalAlign=middle;whiteSpace=wrap;rounded=0;" parent="_jMFxOHOce672pOM5BbB-7" vertex="1">
          <mxGeometry x="30" y="160" width="60" height="30" as="geometry" />
        </mxCell>
        <mxCell id="_jMFxOHOce672pOM5BbB-8" value="" style="group" parent="1" vertex="1" connectable="0">
          <mxGeometry x="330" y="150" width="560" height="232.5" as="geometry" />
        </mxCell>
        <mxCell id="FiWc85nkrxmUE4J1HQtK-24" value="&lt;font style=&quot;font-size: 33px;&quot;&gt;Heading&lt;/font&gt;" style="text;html=1;strokeColor=none;fillColor=none;align=center;verticalAlign=middle;whiteSpace=wrap;rounded=0;" parent="_jMFxOHOce672pOM5BbB-8" vertex="1">
          <mxGeometry width="130" height="30" as="geometry" />
        </mxCell>
        <mxCell id="FiWc85nkrxmUE4J1HQtK-26" value="Lorem ipsum dolor sit amet, consectetur adipiscing elit, sed do eiusmod tempor incididunt ut labore et dolore magna aliqua. Ut enim ad minim veniam, quis nostrud exercitation ullamco laboris nisi ut aliquip ex ea commodo consequat. Duis aute irure dolor in reprehenderit in voluptate velit esse cillum dolore eu fugiat nulla pariatur. Excepteur sint occaecat cupidatat non proident, sunt in culpa qui officia deserunt mollit anim id est laborum.&quot;" style="text;html=1;strokeColor=none;fillColor=none;align=left;verticalAlign=middle;whiteSpace=wrap;rounded=0;" parent="_jMFxOHOce672pOM5BbB-8" vertex="1">
          <mxGeometry y="20" width="540" height="130" as="geometry" />
        </mxCell>
        <mxCell id="FiWc85nkrxmUE4J1HQtK-27" value="" style="rounded=1;whiteSpace=wrap;html=1;" parent="_jMFxOHOce672pOM5BbB-8" vertex="1">
          <mxGeometry y="140" width="20" height="20" as="geometry" />
        </mxCell>
        <mxCell id="FiWc85nkrxmUE4J1HQtK-28" value="&lt;font style=&quot;font-size: 12px;&quot;&gt;Wash Car&lt;br&gt;&lt;/font&gt;" style="text;html=1;strokeColor=none;fillColor=none;align=center;verticalAlign=middle;whiteSpace=wrap;rounded=0;" parent="_jMFxOHOce672pOM5BbB-8" vertex="1">
          <mxGeometry x="30" y="137.5" width="55" height="25" as="geometry" />
        </mxCell>
        <mxCell id="FiWc85nkrxmUE4J1HQtK-29" value="" style="rounded=1;whiteSpace=wrap;html=1;labelBackgroundColor=none;labelBorderColor=none;" parent="_jMFxOHOce672pOM5BbB-8" vertex="1">
          <mxGeometry y="172.5" width="20" height="20" as="geometry" />
        </mxCell>
        <mxCell id="FiWc85nkrxmUE4J1HQtK-30" value="Finish this prototype" style="text;html=1;strokeColor=none;fillColor=none;align=center;verticalAlign=middle;whiteSpace=wrap;rounded=0;" parent="_jMFxOHOce672pOM5BbB-8" vertex="1">
          <mxGeometry x="30" y="170" width="110" height="25" as="geometry" />
        </mxCell>
        <mxCell id="FiWc85nkrxmUE4J1HQtK-31" value="" style="rounded=1;whiteSpace=wrap;html=1;" parent="_jMFxOHOce672pOM5BbB-8" vertex="1">
          <mxGeometry y="210" width="20" height="20" as="geometry" />
        </mxCell>
        <mxCell id="FiWc85nkrxmUE4J1HQtK-32" value="Actually make the UI" style="text;html=1;strokeColor=none;fillColor=none;align=center;verticalAlign=middle;whiteSpace=wrap;rounded=0;" parent="_jMFxOHOce672pOM5BbB-8" vertex="1">
          <mxGeometry x="30" y="207.5" width="120" height="25" as="geometry" />
        </mxCell>
        <mxCell id="FiWc85nkrxmUE4J1HQtK-33" value="&lt;b&gt;&lt;font style=&quot;font-size: 16px;&quot;&gt;X&lt;/font&gt;&lt;/b&gt;" style="text;html=1;strokeColor=none;fillColor=none;align=center;verticalAlign=middle;whiteSpace=wrap;rounded=0;" parent="_jMFxOHOce672pOM5BbB-8" vertex="1">
          <mxGeometry x="5" y="142.5" width="10" height="15" as="geometry" />
        </mxCell>
        <mxCell id="FiWc85nkrxmUE4J1HQtK-34" value="&lt;b&gt;&lt;font style=&quot;font-size: 16px;&quot;&gt;X&lt;/font&gt;&lt;/b&gt;" style="text;html=1;strokeColor=none;fillColor=none;align=center;verticalAlign=middle;whiteSpace=wrap;rounded=0;" parent="_jMFxOHOce672pOM5BbB-8" vertex="1">
          <mxGeometry x="5" y="175" width="10" height="15" as="geometry" />
        </mxCell>
        <mxCell id="_jMFxOHOce672pOM5BbB-9" value="" style="rounded=0;whiteSpace=wrap;html=1;" parent="_jMFxOHOce672pOM5BbB-8" vertex="1">
          <mxGeometry x="-10" y="-30" width="560" height="20" as="geometry" />
        </mxCell>
        <mxCell id="_jMFxOHOce672pOM5BbB-10" value="+" style="text;html=1;strokeColor=none;fillColor=none;align=center;verticalAlign=middle;whiteSpace=wrap;rounded=0;" parent="1" vertex="1">
          <mxGeometry x="860" y="127.5" width="10" height="5" as="geometry" />
        </mxCell>
        <mxCell id="_DsD4Zm94F4IkSbQDXcb-2" style="edgeStyle=orthogonalEdgeStyle;rounded=0;orthogonalLoop=1;jettySize=auto;html=1;exitX=1;exitY=0.5;exitDx=0;exitDy=0;entryX=0;entryY=0.5;entryDx=0;entryDy=0;" edge="1" parent="1" source="_DsD4Zm94F4IkSbQDXcb-1" target="_jMFxOHOce672pOM5BbB-6">
          <mxGeometry relative="1" as="geometry" />
        </mxCell>
        <mxCell id="_DsD4Zm94F4IkSbQDXcb-1" value="&lt;h1&gt;Search Box&lt;br&gt;&lt;/h1&gt;&lt;p&gt;Can search the files by filename or by colour&lt;br&gt;&lt;/p&gt;" style="text;html=1;strokeColor=none;fillColor=none;spacing=5;spacingTop=-20;whiteSpace=wrap;overflow=hidden;rounded=0;" vertex="1" parent="1">
          <mxGeometry x="-80" y="-5" width="190" height="120" as="geometry" />
        </mxCell>
        <mxCell id="_DsD4Zm94F4IkSbQDXcb-3" value="&lt;h1&gt;File Viewer&lt;br&gt;&lt;/h1&gt;&lt;p&gt;Shows the list of discovered notes in the folder provided. Each row contains the filename and that file&#39;s corresponding colour&lt;br&gt;&lt;/p&gt;" style="text;html=1;strokeColor=none;fillColor=none;spacing=5;spacingTop=-20;whiteSpace=wrap;overflow=hidden;rounded=0;" vertex="1" parent="1">
          <mxGeometry x="-100" y="262.5" width="190" height="120" as="geometry" />
        </mxCell>
        <mxCell id="_DsD4Zm94F4IkSbQDXcb-4" style="edgeStyle=orthogonalEdgeStyle;rounded=0;orthogonalLoop=1;jettySize=auto;html=1;exitX=1;exitY=0.5;exitDx=0;exitDy=0;entryX=-0.006;entryY=0.376;entryDx=0;entryDy=0;entryPerimeter=0;" edge="1" parent="1" source="_DsD4Zm94F4IkSbQDXcb-3" target="FiWc85nkrxmUE4J1HQtK-7">
          <mxGeometry relative="1" as="geometry" />
        </mxCell>
        <mxCell id="_DsD4Zm94F4IkSbQDXcb-6" style="edgeStyle=orthogonalEdgeStyle;rounded=0;orthogonalLoop=1;jettySize=auto;html=1;exitX=0.5;exitY=1;exitDx=0;exitDy=0;entryX=0.5;entryY=0;entryDx=0;entryDy=0;" edge="1" parent="1" source="_DsD4Zm94F4IkSbQDXcb-5" target="FiWc85nkrxmUE4J1HQtK-36">
          <mxGeometry relative="1" as="geometry" />
        </mxCell>
        <mxCell id="_DsD4Zm94F4IkSbQDXcb-5" value="New Note Button" style="text;html=1;strokeColor=none;fillColor=none;align=center;verticalAlign=middle;whiteSpace=wrap;rounded=0;" vertex="1" parent="1">
          <mxGeometry x="180" y="10" width="60" height="30" as="geometry" />
        </mxCell>
        <mxCell id="_DsD4Zm94F4IkSbQDXcb-8" style="edgeStyle=orthogonalEdgeStyle;rounded=0;orthogonalLoop=1;jettySize=auto;html=1;exitX=0;exitY=0.5;exitDx=0;exitDy=0;" edge="1" parent="1" source="_DsD4Zm94F4IkSbQDXcb-7" target="FiWc85nkrxmUE4J1HQtK-2">
          <mxGeometry relative="1" as="geometry" />
        </mxCell>
        <mxCell id="_DsD4Zm94F4IkSbQDXcb-7" value="&lt;h1&gt;Note View&lt;br&gt;&lt;/h1&gt;&lt;p&gt;This is where the user can see the contents of the note and edit it. Rich text elements such as headings, bullet pointed lists, tasks (lists with check boxes), body text and images can be inserted.&lt;/p&gt;" style="text;html=1;strokeColor=none;fillColor=none;spacing=5;spacingTop=-20;whiteSpace=wrap;overflow=hidden;rounded=0;" vertex="1" parent="1">
          <mxGeometry x="940" y="222.5" width="190" height="160" as="geometry" />
        </mxCell>
        <mxCell id="_DsD4Zm94F4IkSbQDXcb-10" style="edgeStyle=orthogonalEdgeStyle;rounded=0;orthogonalLoop=1;jettySize=auto;html=1;exitX=0;exitY=0.5;exitDx=0;exitDy=0;entryX=1;entryY=0.5;entryDx=0;entryDy=0;" edge="1" parent="1" source="_DsD4Zm94F4IkSbQDXcb-9" target="_jMFxOHOce672pOM5BbB-9">
          <mxGeometry relative="1" as="geometry" />
        </mxCell>
        <mxCell id="_DsD4Zm94F4IkSbQDXcb-9" value="&lt;h1&gt;Smart Toolbar&lt;/h1&gt;&lt;p&gt;A list of tools to edit the file. Such as toggling element edit mode, inserting new elements and an undo button. This changed dynamically depending on what&#39;s going on&lt;br&gt;&lt;/p&gt;" style="text;html=1;strokeColor=none;fillColor=none;spacing=5;spacingTop=-20;whiteSpace=wrap;overflow=hidden;rounded=0;" vertex="1" parent="1">
          <mxGeometry x="940" y="30" width="210" height="140" as="geometry" />
        </mxCell>
      </root>
    </mxGraphModel>
  </diagram>
</mxfile>
